<svg width="24" height="24" viewBox="0 0 24 24" fill="none" xmlns="http://www.w3.org/2000/svg">
<path d="M4 7C4 6.72 4.10001 6.49 4.29001 6.29C4.48001 6.09 4.72 6 5 6H19C19.28 6 19.51 6.1 19.71 6.29C19.91 6.48 20 6.72 20 7C20 7.28 19.9 7.51 19.71 7.71C19.52 7.91 19.28 8 19 8H5C4.72 8 4.49001 7.9 4.29001 7.71C4.09001 7.52 4 7.28 4 7Z" fill="#78838F"/>
<path d="M4 12C4 11.72 4.10001 11.49 4.29001 11.29C4.48001 11.09 4.72 11 5 11H19C19.28 11 19.51 11.1 19.71 11.29C19.91 11.48 20 11.72 20 12C20 12.28 19.9 12.51 19.71 12.71C19.52 12.91 19.28 13 19 13H5C4.72 13 4.49001 12.9 4.29001 12.71C4.09001 12.52 4 12.28 4 12Z" fill="#78838F"/>
<path d="M4 17C4 16.72 4.10001 16.49 4.29001 16.29C4.48001 16.09 4.72 16 5 16H19C19.28 16 19.51 16.1 19.71 16.29C19.91 16.48 20 16.72 20 17C20 17.28 19.9 17.51 19.71 17.71C19.52 17.91 19.28 18 19 18H5C4.72 18 4.49001 17.9 4.29001 17.71C4.09001 17.52 4 17.28 4 17Z" fill="#78838F"/>
</svg>
