<svg width="28" height="28" viewBox="0 0 28 28" fill="none" xmlns="http://www.w3.org/2000/svg">
<path d="M10.4995 15.1667V5.25C10.4995 4.78587 10.6839 4.34075 11.0121 4.01256C11.3403 3.68437 11.7854 3.5 12.2495 3.5C12.7136 3.5 13.1588 3.68437 13.4869 4.01256C13.8151 4.34075 13.9995 4.78587 13.9995 5.25V14M13.9995 13.4167V11.0833C13.9995 10.6192 14.1839 10.1741 14.5121 9.8459C14.8403 9.51771 15.2854 9.33333 15.7495 9.33333C16.2136 9.33333 16.6588 9.51771 16.9869 9.8459C17.3151 10.1741 17.4995 10.6192 17.4995 11.0833V14M17.4995 12.25C17.4995 11.7859 17.6839 11.3408 18.0121 11.0126C18.3403 10.6844 18.7854 10.5 19.2495 10.5C19.7136 10.5 20.1588 10.6844 20.4869 11.0126C20.8151 11.3408 20.9995 11.7859 20.9995 12.25V14" stroke="white" stroke-width="2.33333" stroke-linecap="round" stroke-linejoin="round"/>
<path d="M20.9996 13.4168C20.9996 12.9527 21.184 12.5076 21.5122 12.1794C21.8403 11.8512 22.2855 11.6668 22.7496 11.6668C23.2137 11.6668 23.6588 11.8512 23.987 12.1794C24.3152 12.5076 24.4996 12.9527 24.4996 13.4168V18.6668C24.4996 20.5233 23.7621 22.3038 22.4493 23.6166C21.1366 24.9293 19.3561 25.6668 17.4996 25.6668H15.1663H15.4089C14.2497 25.667 13.1085 25.3793 12.0879 24.8295C11.0673 24.2797 10.1992 23.485 9.56159 22.5168L9.33293 22.1668C8.96893 21.608 7.69143 19.3808 5.49926 15.4842C5.27578 15.0869 5.21609 14.6182 5.33287 14.1777C5.44965 13.7371 5.7337 13.3595 6.12459 13.1252C6.54095 12.8753 7.02884 12.7718 7.51078 12.831C7.99271 12.8902 8.44106 13.1087 8.78459 13.4518L10.4996 15.1668M6.99959 3.50016L5.83293 2.3335M5.83293 8.16683H4.66626M17.4996 3.50016L18.6663 2.3335M18.6663 7.00016H19.8329" stroke="white" stroke-width="2.33333" stroke-linecap="round" stroke-linejoin="round"/>
</svg>
