<svg width="16" height="16" viewBox="0 0 16 16" fill="none" xmlns="http://www.w3.org/2000/svg">
<g clip-path="url(#clip0_86_224)">
<path d="M8.00009 4.40002C7.81009 4.40002 7.66009 4.47003 7.53009 4.60003C7.40009 4.73003 7.34009 4.89002 7.34009 5.08002C7.34009 5.27002 7.40009 5.42002 7.53009 5.54002C7.66009 5.66002 7.81009 5.72003 8.00009 5.72003C8.19009 5.72003 8.34009 5.66002 8.47009 5.54002C8.60009 5.42002 8.66009 5.27002 8.66009 5.08002C8.66009 4.89002 8.60009 4.73003 8.47009 4.60003C8.34009 4.47003 8.19009 4.40002 8.00009 4.40002Z" fill="#78838F"/>
<path d="M8.65996 7.20001H7.45996V12H8.65996V7.20001Z" fill="#78838F"/>
<path d="M15.37 4.88C14.95 3.91 14.38 3.06 13.66 2.34C12.94 1.62 12.09 1.05 11.12 0.63C10.15 0.21 9.11 0 8.02 0C6.93 0 5.87 0.21 4.9 0.63C3.93 1.05 3.08 1.62 2.35 2.34C1.62 3.06 1.05 3.91 0.63 4.88C0.21 5.85 0 6.89 0 7.98C0 9.07 0.21 10.13 0.63 11.1C1.05 12.07 1.62 12.92 2.35 13.65C3.08 14.38 3.93 14.95 4.9 15.37C5.87 15.79 6.91 16 8 16C9.09 16 10.15 15.79 11.12 15.37C12.09 14.95 12.94 14.38 13.66 13.65C14.38 12.92 14.95 12.07 15.37 11.1C15.79 10.13 16 9.09 16 8C16 6.91 15.79 5.85 15.37 4.88ZM12.82 12.81C11.5 14.14 9.9 14.8 8.02 14.8C6.14 14.8 4.52 14.14 3.19 12.81C1.86 11.48 1.2 9.88 1.2 8C1.2 6.12 1.86 4.5 3.19 3.18C4.52 1.86 6.12 1.2 8 1.2C9.88 1.2 11.5 1.86 12.82 3.18C14.14 4.5 14.8 6.1 14.8 7.98C14.8 9.86 14.14 11.48 12.82 12.81Z" fill="#78838F"/>
</g>
<defs>
<clipPath id="clip0_86_224">
<rect width="16" height="16" fill="white"/>
</clipPath>
</defs>
</svg>
