<svg xmlns="http://www.w3.org/2000/svg" width="60" height="60" viewBox="0 0 60 60">
  <g id="icon_touch" transform="translate(-0.086 -0.086)">
    <g id="그룹_19" data-name="그룹 19" transform="translate(0.094 0.095)">
      <rect id="사각형_26" data-name="사각형 26" width="60" height="60" transform="translate(-0.009 -0.009)" fill="none"/>
    </g>
    <g id="그룹_22" data-name="그룹 22" transform="translate(11.881 2.464)">
      <g id="그룹_21" data-name="그룹 21">
        <g id="그룹_20" data-name="그룹 20">
          <path id="패스_39" data-name="패스 39" d="M15.422,23.692V14.3a6.278,6.278,0,0,1,12.556,0v9.392a11.3,11.3,0,1,0-12.556,0ZM40.132,35.318l-11.4-5.675a3.536,3.536,0,0,0-1.356-.276H25.467V14.3a3.767,3.767,0,1,0-7.533,0V41.269c-9.04-1.908-8.889-1.883-9.216-1.883a2.809,2.809,0,0,0-1.984.829L4.75,42.223l12.4,12.4a3.78,3.78,0,0,0,2.662,1.1h17.05a3.658,3.658,0,0,0,3.616-3.214l1.883-13.234a3.609,3.609,0,0,0-2.235-3.968Z" transform="translate(-4.75 -3)" fill="#fff"/>
        </g>
      </g>
    </g>
  </g>
</svg>
